<svg width="2883" height="1897" xmlns="http://www.w3.org/2000/svg" xmlns:xlink="http://www.w3.org/1999/xlink" overflow="hidden"><defs><clipPath id="clip0"><rect x="1737" y="73" width="2883" height="1897"/></clipPath><clipPath id="clip1"><rect x="1741" y="77" width="2874" height="1889"/></clipPath><clipPath id="clip2"><rect x="1741" y="77" width="2874" height="1889"/></clipPath><clipPath id="clip3"><rect x="2080" y="275" width="2047" height="1426"/></clipPath><clipPath id="clip4"><rect x="1741" y="77" width="2874" height="1889"/></clipPath><clipPath id="clip5"><rect x="2080" y="275" width="2047" height="1426"/></clipPath><clipPath id="clip6"><rect x="1741" y="77" width="2874" height="1889"/></clipPath><clipPath id="clip7"><rect x="1741" y="77" width="2874" height="1889"/></clipPath><clipPath id="clip8"><rect x="1741" y="77" width="2874" height="1889"/></clipPath><clipPath id="clip9"><rect x="1741" y="77" width="2874" height="1889"/></clipPath><clipPath id="clip10"><rect x="1741" y="77" width="2874" height="1889"/></clipPath><clipPath id="clip11"><rect x="1741" y="77" width="2874" height="1889"/></clipPath><clipPath id="clip12"><rect x="1741" y="77" width="2874" height="1889"/></clipPath><clipPath id="clip13"><rect x="1741" y="77" width="2874" height="1889"/></clipPath><clipPath id="clip14"><rect x="1741" y="77" width="2874" height="1889"/></clipPath><clipPath id="clip15"><rect x="1741" y="77" width="2874" height="1889"/></clipPath><clipPath id="clip16"><rect x="1741" y="77" width="2874" height="1889"/></clipPath><clipPath id="clip17"><rect x="1741" y="77" width="2874" height="1889"/></clipPath><clipPath id="clip18"><rect x="1741" y="77" width="2874" height="1889"/></clipPath><clipPath id="clip19"><rect x="1741" y="77" width="2874" height="1889"/></clipPath><clipPath id="clip20"><rect x="1741" y="77" width="2874" height="1889"/></clipPath><clipPath id="clip21"><rect x="1741" y="77" width="2874" height="1889"/></clipPath><clipPath id="clip22"><rect x="1741" y="77" width="2874" height="1889"/></clipPath><clipPath id="clip23"><rect x="1741" y="77" width="2874" height="1889"/></clipPath><clipPath id="clip24"><rect x="1741" y="77" width="2874" height="1889"/></clipPath><clipPath id="clip25"><rect x="1741" y="77" width="2874" height="1889"/></clipPath><clipPath id="clip26"><rect x="1741" y="77" width="2874" height="1889"/></clipPath><clipPath id="clip27"><rect x="1741" y="77" width="2874" height="1889"/></clipPath><clipPath id="clip28"><rect x="1741" y="77" width="2874" height="1889"/></clipPath><clipPath id="clip29"><rect x="1741" y="77" width="2874" height="1889"/></clipPath><clipPath id="clip30"><rect x="1741" y="77" width="2874" height="1889"/></clipPath><clipPath id="clip31"><rect x="1741" y="77" width="2874" height="1889"/></clipPath></defs><g clip-path="url(#clip0)" transform="translate(-1737 -73)"><rect x="1742" y="78" width="2873" height="1888" fill="#FFFFFF" fill-opacity="1"/><g clip-path="url(#clip1)"><path d="M2080.5 1539.55 4124.5 1539.55M2080.5 1381.55 4124.5 1381.55M2080.5 1223.54 4124.5 1223.54M2080.5 1065.54 4124.5 1065.54M2080.5 907.53 4124.5 907.53M2080.5 749.525 4124.5 749.525M2080.5 591.52 4124.5 591.52M2080.5 433.514 4124.5 433.514M2080.5 275.5 4124.5 275.5" stroke="#D9D9D9" stroke-width="3.4375" stroke-linecap="butt" stroke-linejoin="round" stroke-miterlimit="10" stroke-opacity="1" fill="none" fill-rule="nonzero"/></g><g clip-path="url(#clip2)"><path d="M2080.5 1697.5 4124.5 1697.5" stroke="#D9D9D9" stroke-width="3.4375" stroke-linecap="butt" stroke-linejoin="round" stroke-miterlimit="10" stroke-opacity="1" fill="none" fill-rule="evenodd"/></g><g clip-path="url(#clip3)"><path d="M2244 1697 2408.08 1695.06 2571.08 1692.06 2734.09 1687.06 2980.1 1679.06 3307.11 1663.05 3715 1635" stroke="#4472C4" stroke-width="10.3125" stroke-linecap="round" stroke-linejoin="round" stroke-miterlimit="10" stroke-opacity="1" fill="none" fill-rule="nonzero"/></g><g clip-path="url(#clip4)"><path d="M2255.17 1697.42C2255.17 1703.49 2250.24 1708.42 2244.17 1708.42 2238.09 1708.42 2233.17 1703.49 2233.17 1697.42 2233.17 1691.34 2238.09 1686.42 2244.17 1686.42 2250.24 1686.42 2255.17 1691.34 2255.17 1697.42Z" stroke="#4472C4" stroke-width="3.4375" stroke-linecap="butt" stroke-linejoin="round" stroke-miterlimit="10" stroke-opacity="1" fill="#4472C4" fill-rule="nonzero" fill-opacity="1"/><path d="M2418.17 1695.42C2418.17 1701.49 2413.24 1706.42 2407.17 1706.42 2401.09 1706.42 2396.17 1701.49 2396.17 1695.42 2396.17 1689.34 2401.09 1684.42 2407.17 1684.42 2413.24 1684.42 2418.17 1689.34 2418.17 1695.42Z" stroke="#4472C4" stroke-width="3.4375" stroke-linecap="butt" stroke-linejoin="round" stroke-miterlimit="10" stroke-opacity="1" fill="#4472C4" fill-rule="nonzero" fill-opacity="1"/><path d="M2582.17 1692.42C2582.17 1698.49 2577.24 1703.42 2571.17 1703.42 2565.09 1703.42 2560.17 1698.49 2560.17 1692.42 2560.17 1686.34 2565.09 1681.42 2571.17 1681.42 2577.24 1681.42 2582.17 1686.34 2582.17 1692.42Z" stroke="#4472C4" stroke-width="3.4375" stroke-linecap="butt" stroke-linejoin="round" stroke-miterlimit="10" stroke-opacity="1" fill="#4472C4" fill-rule="nonzero" fill-opacity="1"/><path d="M2745.17 1687.42C2745.17 1693.49 2740.24 1698.42 2734.17 1698.42 2728.09 1698.42 2723.17 1693.49 2723.17 1687.42 2723.17 1681.34 2728.09 1676.42 2734.17 1676.42 2740.24 1676.42 2745.17 1681.34 2745.17 1687.42Z" stroke="#4472C4" stroke-width="3.4375" stroke-linecap="butt" stroke-linejoin="round" stroke-miterlimit="10" stroke-opacity="1" fill="#4472C4" fill-rule="nonzero" fill-opacity="1"/><path d="M2990.17 1678.42C2990.17 1684.49 2985.24 1689.42 2979.17 1689.42 2973.09 1689.42 2968.17 1684.49 2968.17 1678.42 2968.17 1672.34 2973.09 1667.42 2979.17 1667.42 2985.24 1667.42 2990.17 1672.34 2990.17 1678.42Z" stroke="#4472C4" stroke-width="3.4375" stroke-linecap="butt" stroke-linejoin="round" stroke-miterlimit="10" stroke-opacity="1" fill="#4472C4" fill-rule="nonzero" fill-opacity="1"/><path d="M3317.17 1663.42C3317.17 1669.49 3312.24 1674.42 3306.17 1674.42 3300.09 1674.42 3295.17 1669.49 3295.17 1663.42 3295.17 1657.34 3300.09 1652.42 3306.17 1652.42 3312.24 1652.42 3317.17 1657.34 3317.17 1663.42Z" stroke="#4472C4" stroke-width="3.4375" stroke-linecap="butt" stroke-linejoin="round" stroke-miterlimit="10" stroke-opacity="1" fill="#4472C4" fill-rule="nonzero" fill-opacity="1"/><path d="M3726.17 1634.42C3726.17 1640.49 3721.24 1645.42 3715.17 1645.42 3709.09 1645.42 3704.17 1640.49 3704.17 1634.42 3704.17 1628.34 3709.09 1623.42 3715.17 1623.42 3721.24 1623.42 3726.17 1628.34 3726.17 1634.42Z" stroke="#4472C4" stroke-width="3.4375" stroke-linecap="butt" stroke-linejoin="round" stroke-miterlimit="10" stroke-opacity="1" fill="#4472C4" fill-rule="nonzero" fill-opacity="1"/></g><g clip-path="url(#clip5)"><path d="M2244 1697 2408.08 1688.06 2571.08 1663.05 2734.09 1616.05 2980.1 1492.05 3307.11 1164.04 3715 421" stroke="#ED7D31" stroke-width="10.3125" stroke-linecap="round" stroke-linejoin="round" stroke-miterlimit="10" stroke-opacity="1" fill="none" fill-rule="nonzero"/></g><g clip-path="url(#clip6)"><path d="M2255.17 1696.42C2255.17 1702.49 2250.24 1707.42 2244.17 1707.42 2238.09 1707.42 2233.17 1702.49 2233.17 1696.42 2233.17 1690.34 2238.09 1685.42 2244.17 1685.42 2250.24 1685.42 2255.17 1690.34 2255.17 1696.42Z" stroke="#ED7D31" stroke-width="3.4375" stroke-linecap="butt" stroke-linejoin="round" stroke-miterlimit="10" stroke-opacity="1" fill="#ED7D31" fill-rule="nonzero" fill-opacity="1"/><path d="M2418.17 1687.42C2418.17 1693.49 2413.24 1698.42 2407.17 1698.42 2401.09 1698.42 2396.17 1693.49 2396.17 1687.42 2396.17 1681.34 2401.09 1676.42 2407.17 1676.42 2413.24 1676.42 2418.17 1681.34 2418.17 1687.42Z" stroke="#ED7D31" stroke-width="3.4375" stroke-linecap="butt" stroke-linejoin="round" stroke-miterlimit="10" stroke-opacity="1" fill="#ED7D31" fill-rule="nonzero" fill-opacity="1"/><path d="M2582.17 1663.42C2582.17 1669.49 2577.24 1674.42 2571.17 1674.42 2565.09 1674.42 2560.17 1669.49 2560.17 1663.42 2560.17 1657.34 2565.09 1652.42 2571.17 1652.42 2577.24 1652.42 2582.17 1657.34 2582.17 1663.42Z" stroke="#ED7D31" stroke-width="3.4375" stroke-linecap="butt" stroke-linejoin="round" stroke-miterlimit="10" stroke-opacity="1" fill="#ED7D31" fill-rule="nonzero" fill-opacity="1"/><path d="M2745.17 1615.42C2745.17 1621.49 2740.24 1626.42 2734.17 1626.42 2728.09 1626.42 2723.17 1621.49 2723.17 1615.42 2723.17 1609.34 2728.09 1604.42 2734.17 1604.42 2740.24 1604.42 2745.17 1609.34 2745.17 1615.42Z" stroke="#ED7D31" stroke-width="3.4375" stroke-linecap="butt" stroke-linejoin="round" stroke-miterlimit="10" stroke-opacity="1" fill="#ED7D31" fill-rule="nonzero" fill-opacity="1"/><path d="M2990.17 1492.42C2990.17 1498.49 2985.24 1503.42 2979.17 1503.42 2973.09 1503.42 2968.17 1498.49 2968.17 1492.42 2968.17 1486.34 2973.09 1481.42 2979.17 1481.42 2985.24 1481.42 2990.17 1486.34 2990.17 1492.42Z" stroke="#ED7D31" stroke-width="3.4375" stroke-linecap="butt" stroke-linejoin="round" stroke-miterlimit="10" stroke-opacity="1" fill="#ED7D31" fill-rule="nonzero" fill-opacity="1"/><path d="M3317.17 1163.42C3317.17 1169.49 3312.24 1174.42 3306.17 1174.42 3300.09 1174.42 3295.17 1169.49 3295.17 1163.42 3295.17 1157.34 3300.09 1152.42 3306.17 1152.42 3312.24 1152.42 3317.17 1157.34 3317.17 1163.42Z" stroke="#ED7D31" stroke-width="3.4375" stroke-linecap="butt" stroke-linejoin="round" stroke-miterlimit="10" stroke-opacity="1" fill="#ED7D31" fill-rule="nonzero" fill-opacity="1"/><path d="M3726.17 420.417C3726.17 426.491 3721.24 431.416 3715.17 431.416 3709.09 431.416 3704.17 426.491 3704.17 420.417 3704.17 414.342 3709.09 409.417 3715.17 409.417 3721.24 409.417 3726.17 414.342 3726.17 420.417Z" stroke="#ED7D31" stroke-width="3.4375" stroke-linecap="butt" stroke-linejoin="round" stroke-miterlimit="10" stroke-opacity="1" fill="#ED7D31" fill-rule="nonzero" fill-opacity="1"/></g><g clip-path="url(#clip7)"><text fill="#595959" fill-opacity="1" font-family="Calibri,Calibri_MSFontService,sans-serif" font-style="normal" font-variant="normal" font-weight="400" font-stretch="normal" font-size="64" text-anchor="start" direction="ltr" writing-mode="lr-tb" unicode-bidi="normal" text-decoration="none" transform="matrix(1 0 0 1 1988.59 1716)">0</text></g><g clip-path="url(#clip8)"><text fill="#595959" fill-opacity="1" font-family="Calibri,Calibri_MSFontService,sans-serif" font-style="normal" font-variant="normal" font-weight="400" font-stretch="normal" font-size="64" text-anchor="start" direction="ltr" writing-mode="lr-tb" unicode-bidi="normal" text-decoration="none" transform="matrix(1 0 0 1 1891.04 1558)">1000</text></g><g clip-path="url(#clip9)"><text fill="#595959" fill-opacity="1" font-family="Calibri,Calibri_MSFontService,sans-serif" font-style="normal" font-variant="normal" font-weight="400" font-stretch="normal" font-size="64" text-anchor="start" direction="ltr" writing-mode="lr-tb" unicode-bidi="normal" text-decoration="none" transform="matrix(1 0 0 1 1891.04 1400)">2000</text></g><g clip-path="url(#clip10)"><text fill="#595959" fill-opacity="1" font-family="Calibri,Calibri_MSFontService,sans-serif" font-style="normal" font-variant="normal" font-weight="400" font-stretch="normal" font-size="64" text-anchor="start" direction="ltr" writing-mode="lr-tb" unicode-bidi="normal" text-decoration="none" transform="matrix(1 0 0 1 1891.04 1242)">3000</text></g><g clip-path="url(#clip11)"><text fill="#595959" fill-opacity="1" font-family="Calibri,Calibri_MSFontService,sans-serif" font-style="normal" font-variant="normal" font-weight="400" font-stretch="normal" font-size="64" text-anchor="start" direction="ltr" writing-mode="lr-tb" unicode-bidi="normal" text-decoration="none" transform="matrix(1 0 0 1 1891.04 1084)">4000</text></g><g clip-path="url(#clip12)"><text fill="#595959" fill-opacity="1" font-family="Calibri,Calibri_MSFontService,sans-serif" font-style="normal" font-variant="normal" font-weight="400" font-stretch="normal" font-size="64" text-anchor="start" direction="ltr" writing-mode="lr-tb" unicode-bidi="normal" text-decoration="none" transform="matrix(1 0 0 1 1891.04 926)">5000</text></g><g clip-path="url(#clip13)"><text fill="#595959" fill-opacity="1" font-family="Calibri,Calibri_MSFontService,sans-serif" font-style="normal" font-variant="normal" font-weight="400" font-stretch="normal" font-size="64" text-anchor="start" direction="ltr" writing-mode="lr-tb" unicode-bidi="normal" text-decoration="none" transform="matrix(1 0 0 1 1891.04 768)">6000</text></g><g clip-path="url(#clip14)"><text fill="#595959" fill-opacity="1" font-family="Calibri,Calibri_MSFontService,sans-serif" font-style="normal" font-variant="normal" font-weight="400" font-stretch="normal" font-size="64" text-anchor="start" direction="ltr" writing-mode="lr-tb" unicode-bidi="normal" text-decoration="none" transform="matrix(1 0 0 1 1891.04 609)">7000</text></g><g clip-path="url(#clip15)"><text fill="#595959" fill-opacity="1" font-family="Calibri,Calibri_MSFontService,sans-serif" font-style="normal" font-variant="normal" font-weight="400" font-stretch="normal" font-size="64" text-anchor="start" direction="ltr" writing-mode="lr-tb" unicode-bidi="normal" text-decoration="none" transform="matrix(1 0 0 1 1891.04 451)">8000</text></g><g clip-path="url(#clip16)"><text fill="#595959" fill-opacity="1" font-family="Calibri,Calibri_MSFontService,sans-serif" font-style="normal" font-variant="normal" font-weight="400" font-stretch="normal" font-size="64" text-anchor="start" direction="ltr" writing-mode="lr-tb" unicode-bidi="normal" text-decoration="none" transform="matrix(1 0 0 1 1891.04 293)">9000</text></g><g clip-path="url(#clip17)"><text fill="#595959" fill-opacity="1" font-family="Calibri,Calibri_MSFontService,sans-serif" font-style="normal" font-variant="normal" font-weight="400" font-stretch="normal" font-size="64" text-anchor="start" direction="ltr" writing-mode="lr-tb" unicode-bidi="normal" text-decoration="none" transform="matrix(1 0 0 1 2064.38 1800)">0</text></g><g clip-path="url(#clip18)"><text fill="#595959" fill-opacity="1" font-family="Calibri,Calibri_MSFontService,sans-serif" font-style="normal" font-variant="normal" font-weight="400" font-stretch="normal" font-size="64" text-anchor="start" direction="ltr" writing-mode="lr-tb" unicode-bidi="normal" text-decoration="none" transform="matrix(1 0 0 1 2473.09 1800)">5</text></g><g clip-path="url(#clip19)"><text fill="#595959" fill-opacity="1" font-family="Calibri,Calibri_MSFontService,sans-serif" font-style="normal" font-variant="normal" font-weight="400" font-stretch="normal" font-size="64" text-anchor="start" direction="ltr" writing-mode="lr-tb" unicode-bidi="normal" text-decoration="none" transform="matrix(1 0 0 1 2865.54 1800)">10</text></g><g clip-path="url(#clip20)"><text fill="#595959" fill-opacity="1" font-family="Calibri,Calibri_MSFontService,sans-serif" font-style="normal" font-variant="normal" font-weight="400" font-stretch="normal" font-size="64" text-anchor="start" direction="ltr" writing-mode="lr-tb" unicode-bidi="normal" text-decoration="none" transform="matrix(1 0 0 1 3274.24 1800)">15</text></g><g clip-path="url(#clip21)"><text fill="#595959" fill-opacity="1" font-family="Calibri,Calibri_MSFontService,sans-serif" font-style="normal" font-variant="normal" font-weight="400" font-stretch="normal" font-size="64" text-anchor="start" direction="ltr" writing-mode="lr-tb" unicode-bidi="normal" text-decoration="none" transform="matrix(1 0 0 1 3682.95 1800)">20</text></g><g clip-path="url(#clip22)"><text fill="#595959" fill-opacity="1" font-family="Calibri,Calibri_MSFontService,sans-serif" font-style="normal" font-variant="normal" font-weight="400" font-stretch="normal" font-size="64" text-anchor="start" direction="ltr" writing-mode="lr-tb" unicode-bidi="normal" text-decoration="none" transform="matrix(1 0 0 1 4091.65 1800)">25</text></g><g clip-path="url(#clip23)"><text fill="#595959" fill-opacity="1" font-family="Calibri,Calibri_MSFontService,sans-serif" font-style="normal" font-variant="normal" font-weight="400" font-stretch="normal" font-size="64" text-anchor="start" direction="ltr" writing-mode="lr-tb" unicode-bidi="normal" text-decoration="none" transform="matrix(6.12323e-17 -1 1 6.12323e-17 1859.96 1153)">Titre de l'axe</text></g><g clip-path="url(#clip24)"><text fill="#595959" fill-opacity="1" font-family="Calibri,Calibri_MSFontService,sans-serif" font-style="normal" font-variant="normal" font-weight="400" font-stretch="normal" font-size="64" text-anchor="start" direction="ltr" writing-mode="lr-tb" unicode-bidi="normal" text-decoration="none" transform="matrix(1 0 0 1 2936.09 1892)">Titre de l'axe</text></g><g clip-path="url(#clip25)"><text fill="#595959" fill-opacity="1" font-family="Calibri,Calibri_MSFontService,sans-serif" font-style="normal" font-variant="normal" font-weight="400" font-stretch="normal" font-size="77" text-anchor="start" direction="ltr" writing-mode="lr-tb" unicode-bidi="normal" text-decoration="none" transform="matrix(1 0 0 1 2890.04 185)">Titre du graphique</text></g><g clip-path="url(#clip26)"><path d="M4228 1037 4316 1037" stroke="#4472C4" stroke-width="10.3125" stroke-linecap="round" stroke-linejoin="round" stroke-miterlimit="10" stroke-opacity="1" fill="none" fill-rule="evenodd"/></g><g clip-path="url(#clip27)"><path d="M4283 1037C4283 1043.07 4278.08 1048 4272 1048 4265.92 1048 4261 1043.07 4261 1037 4261 1030.92 4265.92 1026 4272 1026 4278.08 1026 4283 1030.92 4283 1037Z" stroke="#4472C4" stroke-width="3.4375" stroke-linecap="butt" stroke-linejoin="round" stroke-miterlimit="10" stroke-opacity="1" fill="#4472C4" fill-rule="nonzero" fill-opacity="1"/></g><g clip-path="url(#clip28)"><text fill="#595959" fill-opacity="1" font-family="Calibri,Calibri_MSFontService,sans-serif" font-style="normal" font-variant="normal" font-weight="400" font-stretch="normal" font-size="64" text-anchor="start" direction="ltr" writing-mode="lr-tb" unicode-bidi="normal" text-decoration="none" transform="matrix(1 0 0 1 4325.7 1055)">mesure 0</text></g><g clip-path="url(#clip29)"><path d="M4228 1142 4316 1142" stroke="#ED7D31" stroke-width="10.3125" stroke-linecap="round" stroke-linejoin="round" stroke-miterlimit="10" stroke-opacity="1" fill="none" fill-rule="evenodd"/></g><g clip-path="url(#clip30)"><path d="M4283 1142C4283 1148.07 4278.08 1153 4272 1153 4265.92 1153 4261 1148.07 4261 1142 4261 1135.92 4265.92 1131 4272 1131 4278.08 1131 4283 1135.92 4283 1142Z" stroke="#ED7D31" stroke-width="3.4375" stroke-linecap="butt" stroke-linejoin="round" stroke-miterlimit="10" stroke-opacity="1" fill="#ED7D31" fill-rule="nonzero" fill-opacity="1"/></g><g clip-path="url(#clip31)"><text fill="#595959" fill-opacity="1" font-family="Calibri,Calibri_MSFontService,sans-serif" font-style="normal" font-variant="normal" font-weight="400" font-stretch="normal" font-size="64" text-anchor="start" direction="ltr" writing-mode="lr-tb" unicode-bidi="normal" text-decoration="none" transform="matrix(1 0 0 1 4325.7 1160)">mesure 1</text></g><rect x="1742.5" y="78.4999" width="2873" height="1888" stroke="#D9D9D9" stroke-width="3.4375" stroke-linecap="butt" stroke-linejoin="round" stroke-miterlimit="10" stroke-opacity="1" fill="none"/></g></svg>