<?xml version="1.0" encoding="utf-8" standalone="no"?>
<!DOCTYPE svg PUBLIC "-//W3C//DTD SVG 1.1//EN"
  "http://www.w3.org/Graphics/SVG/1.1/DTD/svg11.dtd">
<svg xmlns:xlink="http://www.w3.org/1999/xlink" width="460.8pt" height="345.6pt" viewBox="0 0 460.8 345.6" xmlns="http://www.w3.org/2000/svg" version="1.1">
 <metadata>
  <rdf:RDF xmlns:dc="http://purl.org/dc/elements/1.1/" xmlns:cc="http://creativecommons.org/ns#" xmlns:rdf="http://www.w3.org/1999/02/22-rdf-syntax-ns#">
   <cc:Work>
    <dc:type rdf:resource="http://purl.org/dc/dcmitype/StillImage"/>
    <dc:date>2023-03-07T11:06:00.549708</dc:date>
    <dc:format>image/svg+xml</dc:format>
    <dc:creator>
     <cc:Agent>
      <dc:title>Matplotlib v3.5.2, https://matplotlib.org/</dc:title>
     </cc:Agent>
    </dc:creator>
   </cc:Work>
  </rdf:RDF>
 </metadata>
 <defs>
  <style type="text/css">*{stroke-linejoin: round; stroke-linecap: butt}</style>
 </defs>
 <g id="figure_1">
  <g id="patch_1">
   <path d="M 0 345.6 
L 460.8 345.6 
L 460.8 0 
L 0 0 
z
" style="fill: #ffffff"/>
  </g>
  <g id="axes_1">
   <g id="patch_2">
    <path d="M 57.6 307.584 
L 414.72 307.584 
L 414.72 41.472 
L 57.6 41.472 
z
" style="fill: #ffffff"/>
   </g>
   <g id="matplotlib.axis_1">
    <g id="xtick_1">
     <g id="line2d_1">
      <defs>
       <path id="m5163e5c377" d="M 0 0 
L 0 3.5 
" style="stroke: #000000; stroke-width: 0.8"/>
      </defs>
      <g>
       <use xlink:href="#m5163e5c377" x="73.800259" y="307.584" style="stroke: #000000; stroke-width: 0.8"/>
      </g>
     </g>
     <g id="text_1">
      <!-- 0 -->
      <g transform="translate(70.619009 322.182437)scale(0.1 -0.1)">
       <defs>
        <path id="DejaVuSans-30" d="M 2034 4250 
Q 1547 4250 1301 3770 
Q 1056 3291 1056 2328 
Q 1056 1369 1301 889 
Q 1547 409 2034 409 
Q 2525 409 2770 889 
Q 3016 1369 3016 2328 
Q 3016 3291 2770 3770 
Q 2525 4250 2034 4250 
z
M 2034 4750 
Q 2819 4750 3233 4129 
Q 3647 3509 3647 2328 
Q 3647 1150 3233 529 
Q 2819 -91 2034 -91 
Q 1250 -91 836 529 
Q 422 1150 422 2328 
Q 422 3509 836 4129 
Q 1250 4750 2034 4750 
z
" transform="scale(0.015625)"/>
       </defs>
       <use xlink:href="#DejaVuSans-30"/>
      </g>
     </g>
    </g>
    <g id="xtick_2">
     <g id="line2d_2">
      <g>
       <use xlink:href="#m5163e5c377" x="138.737661" y="307.584" style="stroke: #000000; stroke-width: 0.8"/>
      </g>
     </g>
     <g id="text_2">
      <!-- 20000 -->
      <g transform="translate(122.831411 322.182437)scale(0.1 -0.1)">
       <defs>
        <path id="DejaVuSans-32" d="M 1228 531 
L 3431 531 
L 3431 0 
L 469 0 
L 469 531 
Q 828 903 1448 1529 
Q 2069 2156 2228 2338 
Q 2531 2678 2651 2914 
Q 2772 3150 2772 3378 
Q 2772 3750 2511 3984 
Q 2250 4219 1831 4219 
Q 1534 4219 1204 4116 
Q 875 4013 500 3803 
L 500 4441 
Q 881 4594 1212 4672 
Q 1544 4750 1819 4750 
Q 2544 4750 2975 4387 
Q 3406 4025 3406 3419 
Q 3406 3131 3298 2873 
Q 3191 2616 2906 2266 
Q 2828 2175 2409 1742 
Q 1991 1309 1228 531 
z
" transform="scale(0.015625)"/>
       </defs>
       <use xlink:href="#DejaVuSans-32"/>
       <use xlink:href="#DejaVuSans-30" x="63.623047"/>
       <use xlink:href="#DejaVuSans-30" x="127.246094"/>
       <use xlink:href="#DejaVuSans-30" x="190.869141"/>
       <use xlink:href="#DejaVuSans-30" x="254.492188"/>
      </g>
     </g>
    </g>
    <g id="xtick_3">
     <g id="line2d_3">
      <g>
       <use xlink:href="#m5163e5c377" x="203.675064" y="307.584" style="stroke: #000000; stroke-width: 0.8"/>
      </g>
     </g>
     <g id="text_3">
      <!-- 40000 -->
      <g transform="translate(187.768814 322.182437)scale(0.1 -0.1)">
       <defs>
        <path id="DejaVuSans-34" d="M 2419 4116 
L 825 1625 
L 2419 1625 
L 2419 4116 
z
M 2253 4666 
L 3047 4666 
L 3047 1625 
L 3713 1625 
L 3713 1100 
L 3047 1100 
L 3047 0 
L 2419 0 
L 2419 1100 
L 313 1100 
L 313 1709 
L 2253 4666 
z
" transform="scale(0.015625)"/>
       </defs>
       <use xlink:href="#DejaVuSans-34"/>
       <use xlink:href="#DejaVuSans-30" x="63.623047"/>
       <use xlink:href="#DejaVuSans-30" x="127.246094"/>
       <use xlink:href="#DejaVuSans-30" x="190.869141"/>
       <use xlink:href="#DejaVuSans-30" x="254.492188"/>
      </g>
     </g>
    </g>
    <g id="xtick_4">
     <g id="line2d_4">
      <g>
       <use xlink:href="#m5163e5c377" x="268.612467" y="307.584" style="stroke: #000000; stroke-width: 0.8"/>
      </g>
     </g>
     <g id="text_4">
      <!-- 60000 -->
      <g transform="translate(252.706217 322.182437)scale(0.1 -0.1)">
       <defs>
        <path id="DejaVuSans-36" d="M 2113 2584 
Q 1688 2584 1439 2293 
Q 1191 2003 1191 1497 
Q 1191 994 1439 701 
Q 1688 409 2113 409 
Q 2538 409 2786 701 
Q 3034 994 3034 1497 
Q 3034 2003 2786 2293 
Q 2538 2584 2113 2584 
z
M 3366 4563 
L 3366 3988 
Q 3128 4100 2886 4159 
Q 2644 4219 2406 4219 
Q 1781 4219 1451 3797 
Q 1122 3375 1075 2522 
Q 1259 2794 1537 2939 
Q 1816 3084 2150 3084 
Q 2853 3084 3261 2657 
Q 3669 2231 3669 1497 
Q 3669 778 3244 343 
Q 2819 -91 2113 -91 
Q 1303 -91 875 529 
Q 447 1150 447 2328 
Q 447 3434 972 4092 
Q 1497 4750 2381 4750 
Q 2619 4750 2861 4703 
Q 3103 4656 3366 4563 
z
" transform="scale(0.015625)"/>
       </defs>
       <use xlink:href="#DejaVuSans-36"/>
       <use xlink:href="#DejaVuSans-30" x="63.623047"/>
       <use xlink:href="#DejaVuSans-30" x="127.246094"/>
       <use xlink:href="#DejaVuSans-30" x="190.869141"/>
       <use xlink:href="#DejaVuSans-30" x="254.492188"/>
      </g>
     </g>
    </g>
    <g id="xtick_5">
     <g id="line2d_5">
      <g>
       <use xlink:href="#m5163e5c377" x="333.54987" y="307.584" style="stroke: #000000; stroke-width: 0.8"/>
      </g>
     </g>
     <g id="text_5">
      <!-- 80000 -->
      <g transform="translate(317.64362 322.182437)scale(0.1 -0.1)">
       <defs>
        <path id="DejaVuSans-38" d="M 2034 2216 
Q 1584 2216 1326 1975 
Q 1069 1734 1069 1313 
Q 1069 891 1326 650 
Q 1584 409 2034 409 
Q 2484 409 2743 651 
Q 3003 894 3003 1313 
Q 3003 1734 2745 1975 
Q 2488 2216 2034 2216 
z
M 1403 2484 
Q 997 2584 770 2862 
Q 544 3141 544 3541 
Q 544 4100 942 4425 
Q 1341 4750 2034 4750 
Q 2731 4750 3128 4425 
Q 3525 4100 3525 3541 
Q 3525 3141 3298 2862 
Q 3072 2584 2669 2484 
Q 3125 2378 3379 2068 
Q 3634 1759 3634 1313 
Q 3634 634 3220 271 
Q 2806 -91 2034 -91 
Q 1263 -91 848 271 
Q 434 634 434 1313 
Q 434 1759 690 2068 
Q 947 2378 1403 2484 
z
M 1172 3481 
Q 1172 3119 1398 2916 
Q 1625 2713 2034 2713 
Q 2441 2713 2670 2916 
Q 2900 3119 2900 3481 
Q 2900 3844 2670 4047 
Q 2441 4250 2034 4250 
Q 1625 4250 1398 4047 
Q 1172 3844 1172 3481 
z
" transform="scale(0.015625)"/>
       </defs>
       <use xlink:href="#DejaVuSans-38"/>
       <use xlink:href="#DejaVuSans-30" x="63.623047"/>
       <use xlink:href="#DejaVuSans-30" x="127.246094"/>
       <use xlink:href="#DejaVuSans-30" x="190.869141"/>
       <use xlink:href="#DejaVuSans-30" x="254.492188"/>
      </g>
     </g>
    </g>
    <g id="xtick_6">
     <g id="line2d_6">
      <g>
       <use xlink:href="#m5163e5c377" x="398.487273" y="307.584" style="stroke: #000000; stroke-width: 0.8"/>
      </g>
     </g>
     <g id="text_6">
      <!-- 100000 -->
      <g transform="translate(379.399773 322.182437)scale(0.1 -0.1)">
       <defs>
        <path id="DejaVuSans-31" d="M 794 531 
L 1825 531 
L 1825 4091 
L 703 3866 
L 703 4441 
L 1819 4666 
L 2450 4666 
L 2450 531 
L 3481 531 
L 3481 0 
L 794 0 
L 794 531 
z
" transform="scale(0.015625)"/>
       </defs>
       <use xlink:href="#DejaVuSans-31"/>
       <use xlink:href="#DejaVuSans-30" x="63.623047"/>
       <use xlink:href="#DejaVuSans-30" x="127.246094"/>
       <use xlink:href="#DejaVuSans-30" x="190.869141"/>
       <use xlink:href="#DejaVuSans-30" x="254.492188"/>
       <use xlink:href="#DejaVuSans-30" x="318.115234"/>
      </g>
     </g>
    </g>
    <g id="text_7">
     <!-- Taille du dataset -->
     <g transform="translate(195.198281 335.860562)scale(0.1 -0.1)">
      <defs>
       <path id="DejaVuSans-54" d="M -19 4666 
L 3928 4666 
L 3928 4134 
L 2272 4134 
L 2272 0 
L 1638 0 
L 1638 4134 
L -19 4134 
L -19 4666 
z
" transform="scale(0.015625)"/>
       <path id="DejaVuSans-61" d="M 2194 1759 
Q 1497 1759 1228 1600 
Q 959 1441 959 1056 
Q 959 750 1161 570 
Q 1363 391 1709 391 
Q 2188 391 2477 730 
Q 2766 1069 2766 1631 
L 2766 1759 
L 2194 1759 
z
M 3341 1997 
L 3341 0 
L 2766 0 
L 2766 531 
Q 2569 213 2275 61 
Q 1981 -91 1556 -91 
Q 1019 -91 701 211 
Q 384 513 384 1019 
Q 384 1609 779 1909 
Q 1175 2209 1959 2209 
L 2766 2209 
L 2766 2266 
Q 2766 2663 2505 2880 
Q 2244 3097 1772 3097 
Q 1472 3097 1187 3025 
Q 903 2953 641 2809 
L 641 3341 
Q 956 3463 1253 3523 
Q 1550 3584 1831 3584 
Q 2591 3584 2966 3190 
Q 3341 2797 3341 1997 
z
" transform="scale(0.015625)"/>
       <path id="DejaVuSans-69" d="M 603 3500 
L 1178 3500 
L 1178 0 
L 603 0 
L 603 3500 
z
M 603 4863 
L 1178 4863 
L 1178 4134 
L 603 4134 
L 603 4863 
z
" transform="scale(0.015625)"/>
       <path id="DejaVuSans-6c" d="M 603 4863 
L 1178 4863 
L 1178 0 
L 603 0 
L 603 4863 
z
" transform="scale(0.015625)"/>
       <path id="DejaVuSans-65" d="M 3597 1894 
L 3597 1613 
L 953 1613 
Q 991 1019 1311 708 
Q 1631 397 2203 397 
Q 2534 397 2845 478 
Q 3156 559 3463 722 
L 3463 178 
Q 3153 47 2828 -22 
Q 2503 -91 2169 -91 
Q 1331 -91 842 396 
Q 353 884 353 1716 
Q 353 2575 817 3079 
Q 1281 3584 2069 3584 
Q 2775 3584 3186 3129 
Q 3597 2675 3597 1894 
z
M 3022 2063 
Q 3016 2534 2758 2815 
Q 2500 3097 2075 3097 
Q 1594 3097 1305 2825 
Q 1016 2553 972 2059 
L 3022 2063 
z
" transform="scale(0.015625)"/>
       <path id="DejaVuSans-20" transform="scale(0.015625)"/>
       <path id="DejaVuSans-64" d="M 2906 2969 
L 2906 4863 
L 3481 4863 
L 3481 0 
L 2906 0 
L 2906 525 
Q 2725 213 2448 61 
Q 2172 -91 1784 -91 
Q 1150 -91 751 415 
Q 353 922 353 1747 
Q 353 2572 751 3078 
Q 1150 3584 1784 3584 
Q 2172 3584 2448 3432 
Q 2725 3281 2906 2969 
z
M 947 1747 
Q 947 1113 1208 752 
Q 1469 391 1925 391 
Q 2381 391 2643 752 
Q 2906 1113 2906 1747 
Q 2906 2381 2643 2742 
Q 2381 3103 1925 3103 
Q 1469 3103 1208 2742 
Q 947 2381 947 1747 
z
" transform="scale(0.015625)"/>
       <path id="DejaVuSans-75" d="M 544 1381 
L 544 3500 
L 1119 3500 
L 1119 1403 
Q 1119 906 1312 657 
Q 1506 409 1894 409 
Q 2359 409 2629 706 
Q 2900 1003 2900 1516 
L 2900 3500 
L 3475 3500 
L 3475 0 
L 2900 0 
L 2900 538 
Q 2691 219 2414 64 
Q 2138 -91 1772 -91 
Q 1169 -91 856 284 
Q 544 659 544 1381 
z
M 1991 3584 
L 1991 3584 
z
" transform="scale(0.015625)"/>
       <path id="DejaVuSans-74" d="M 1172 4494 
L 1172 3500 
L 2356 3500 
L 2356 3053 
L 1172 3053 
L 1172 1153 
Q 1172 725 1289 603 
Q 1406 481 1766 481 
L 2356 481 
L 2356 0 
L 1766 0 
Q 1100 0 847 248 
Q 594 497 594 1153 
L 594 3053 
L 172 3053 
L 172 3500 
L 594 3500 
L 594 4494 
L 1172 4494 
z
" transform="scale(0.015625)"/>
       <path id="DejaVuSans-73" d="M 2834 3397 
L 2834 2853 
Q 2591 2978 2328 3040 
Q 2066 3103 1784 3103 
Q 1356 3103 1142 2972 
Q 928 2841 928 2578 
Q 928 2378 1081 2264 
Q 1234 2150 1697 2047 
L 1894 2003 
Q 2506 1872 2764 1633 
Q 3022 1394 3022 966 
Q 3022 478 2636 193 
Q 2250 -91 1575 -91 
Q 1294 -91 989 -36 
Q 684 19 347 128 
L 347 722 
Q 666 556 975 473 
Q 1284 391 1588 391 
Q 1994 391 2212 530 
Q 2431 669 2431 922 
Q 2431 1156 2273 1281 
Q 2116 1406 1581 1522 
L 1381 1569 
Q 847 1681 609 1914 
Q 372 2147 372 2553 
Q 372 3047 722 3315 
Q 1072 3584 1716 3584 
Q 2034 3584 2315 3537 
Q 2597 3491 2834 3397 
z
" transform="scale(0.015625)"/>
      </defs>
      <use xlink:href="#DejaVuSans-54"/>
      <use xlink:href="#DejaVuSans-61" x="44.583984"/>
      <use xlink:href="#DejaVuSans-69" x="105.863281"/>
      <use xlink:href="#DejaVuSans-6c" x="133.646484"/>
      <use xlink:href="#DejaVuSans-6c" x="161.429688"/>
      <use xlink:href="#DejaVuSans-65" x="189.212891"/>
      <use xlink:href="#DejaVuSans-20" x="250.736328"/>
      <use xlink:href="#DejaVuSans-64" x="282.523438"/>
      <use xlink:href="#DejaVuSans-75" x="346"/>
      <use xlink:href="#DejaVuSans-20" x="409.378906"/>
      <use xlink:href="#DejaVuSans-64" x="441.166016"/>
      <use xlink:href="#DejaVuSans-61" x="504.642578"/>
      <use xlink:href="#DejaVuSans-74" x="565.921875"/>
      <use xlink:href="#DejaVuSans-61" x="605.130859"/>
      <use xlink:href="#DejaVuSans-73" x="666.410156"/>
      <use xlink:href="#DejaVuSans-65" x="718.509766"/>
      <use xlink:href="#DejaVuSans-74" x="780.033203"/>
     </g>
    </g>
   </g>
   <g id="matplotlib.axis_2">
    <g id="ytick_1">
     <g id="line2d_7">
      <defs>
       <path id="m06d1a20738" d="M 0 0 
L -3.5 0 
" style="stroke: #000000; stroke-width: 0.8"/>
      </defs>
      <g>
       <use xlink:href="#m06d1a20738" x="57.6" y="295.48801" style="stroke: #000000; stroke-width: 0.8"/>
      </g>
     </g>
     <g id="text_8">
      <!-- 0 -->
      <g transform="translate(44.2375 299.287229)scale(0.1 -0.1)">
       <use xlink:href="#DejaVuSans-30"/>
      </g>
     </g>
    </g>
    <g id="ytick_2">
     <g id="line2d_8">
      <g>
       <use xlink:href="#m06d1a20738" x="57.6" y="243.261156" style="stroke: #000000; stroke-width: 0.8"/>
      </g>
     </g>
     <g id="text_9">
      <!-- 500 -->
      <g transform="translate(31.5125 247.060375)scale(0.1 -0.1)">
       <defs>
        <path id="DejaVuSans-35" d="M 691 4666 
L 3169 4666 
L 3169 4134 
L 1269 4134 
L 1269 2991 
Q 1406 3038 1543 3061 
Q 1681 3084 1819 3084 
Q 2600 3084 3056 2656 
Q 3513 2228 3513 1497 
Q 3513 744 3044 326 
Q 2575 -91 1722 -91 
Q 1428 -91 1123 -41 
Q 819 9 494 109 
L 494 744 
Q 775 591 1075 516 
Q 1375 441 1709 441 
Q 2250 441 2565 725 
Q 2881 1009 2881 1497 
Q 2881 1984 2565 2268 
Q 2250 2553 1709 2553 
Q 1456 2553 1204 2497 
Q 953 2441 691 2322 
L 691 4666 
z
" transform="scale(0.015625)"/>
       </defs>
       <use xlink:href="#DejaVuSans-35"/>
       <use xlink:href="#DejaVuSans-30" x="63.623047"/>
       <use xlink:href="#DejaVuSans-30" x="127.246094"/>
      </g>
     </g>
    </g>
    <g id="ytick_3">
     <g id="line2d_9">
      <g>
       <use xlink:href="#m06d1a20738" x="57.6" y="191.034302" style="stroke: #000000; stroke-width: 0.8"/>
      </g>
     </g>
     <g id="text_10">
      <!-- 1000 -->
      <g transform="translate(25.15 194.833521)scale(0.1 -0.1)">
       <use xlink:href="#DejaVuSans-31"/>
       <use xlink:href="#DejaVuSans-30" x="63.623047"/>
       <use xlink:href="#DejaVuSans-30" x="127.246094"/>
       <use xlink:href="#DejaVuSans-30" x="190.869141"/>
      </g>
     </g>
    </g>
    <g id="ytick_4">
     <g id="line2d_10">
      <g>
       <use xlink:href="#m06d1a20738" x="57.6" y="138.807448" style="stroke: #000000; stroke-width: 0.8"/>
      </g>
     </g>
     <g id="text_11">
      <!-- 1500 -->
      <g transform="translate(25.15 142.606667)scale(0.1 -0.1)">
       <use xlink:href="#DejaVuSans-31"/>
       <use xlink:href="#DejaVuSans-35" x="63.623047"/>
       <use xlink:href="#DejaVuSans-30" x="127.246094"/>
       <use xlink:href="#DejaVuSans-30" x="190.869141"/>
      </g>
     </g>
    </g>
    <g id="ytick_5">
     <g id="line2d_11">
      <g>
       <use xlink:href="#m06d1a20738" x="57.6" y="86.580594" style="stroke: #000000; stroke-width: 0.8"/>
      </g>
     </g>
     <g id="text_12">
      <!-- 2000 -->
      <g transform="translate(25.15 90.379813)scale(0.1 -0.1)">
       <use xlink:href="#DejaVuSans-32"/>
       <use xlink:href="#DejaVuSans-30" x="63.623047"/>
       <use xlink:href="#DejaVuSans-30" x="127.246094"/>
       <use xlink:href="#DejaVuSans-30" x="190.869141"/>
      </g>
     </g>
    </g>
    <g id="text_13">
     <!-- Temps en ms -->
     <g transform="translate(19.070312 207.356125)rotate(-90)scale(0.1 -0.1)">
      <defs>
       <path id="DejaVuSans-6d" d="M 3328 2828 
Q 3544 3216 3844 3400 
Q 4144 3584 4550 3584 
Q 5097 3584 5394 3201 
Q 5691 2819 5691 2113 
L 5691 0 
L 5113 0 
L 5113 2094 
Q 5113 2597 4934 2840 
Q 4756 3084 4391 3084 
Q 3944 3084 3684 2787 
Q 3425 2491 3425 1978 
L 3425 0 
L 2847 0 
L 2847 2094 
Q 2847 2600 2669 2842 
Q 2491 3084 2119 3084 
Q 1678 3084 1418 2786 
Q 1159 2488 1159 1978 
L 1159 0 
L 581 0 
L 581 3500 
L 1159 3500 
L 1159 2956 
Q 1356 3278 1631 3431 
Q 1906 3584 2284 3584 
Q 2666 3584 2933 3390 
Q 3200 3197 3328 2828 
z
" transform="scale(0.015625)"/>
       <path id="DejaVuSans-70" d="M 1159 525 
L 1159 -1331 
L 581 -1331 
L 581 3500 
L 1159 3500 
L 1159 2969 
Q 1341 3281 1617 3432 
Q 1894 3584 2278 3584 
Q 2916 3584 3314 3078 
Q 3713 2572 3713 1747 
Q 3713 922 3314 415 
Q 2916 -91 2278 -91 
Q 1894 -91 1617 61 
Q 1341 213 1159 525 
z
M 3116 1747 
Q 3116 2381 2855 2742 
Q 2594 3103 2138 3103 
Q 1681 3103 1420 2742 
Q 1159 2381 1159 1747 
Q 1159 1113 1420 752 
Q 1681 391 2138 391 
Q 2594 391 2855 752 
Q 3116 1113 3116 1747 
z
" transform="scale(0.015625)"/>
       <path id="DejaVuSans-6e" d="M 3513 2113 
L 3513 0 
L 2938 0 
L 2938 2094 
Q 2938 2591 2744 2837 
Q 2550 3084 2163 3084 
Q 1697 3084 1428 2787 
Q 1159 2491 1159 1978 
L 1159 0 
L 581 0 
L 581 3500 
L 1159 3500 
L 1159 2956 
Q 1366 3272 1645 3428 
Q 1925 3584 2291 3584 
Q 2894 3584 3203 3211 
Q 3513 2838 3513 2113 
z
" transform="scale(0.015625)"/>
      </defs>
      <use xlink:href="#DejaVuSans-54"/>
      <use xlink:href="#DejaVuSans-65" x="44.083984"/>
      <use xlink:href="#DejaVuSans-6d" x="105.607422"/>
      <use xlink:href="#DejaVuSans-70" x="203.019531"/>
      <use xlink:href="#DejaVuSans-73" x="266.496094"/>
      <use xlink:href="#DejaVuSans-20" x="318.595703"/>
      <use xlink:href="#DejaVuSans-65" x="350.382812"/>
      <use xlink:href="#DejaVuSans-6e" x="411.90625"/>
      <use xlink:href="#DejaVuSans-20" x="475.285156"/>
      <use xlink:href="#DejaVuSans-6d" x="507.072266"/>
      <use xlink:href="#DejaVuSans-73" x="604.484375"/>
     </g>
    </g>
   </g>
   <g id="line2d_12">
    <path d="M 73.832727 295.487718 
L 74.043774 295.487906 
L 74.124946 295.487927 
L 77.047129 295.487269 
L 90.034609 295.48542 
L 98.151785 295.483916 
L 106.26896 295.481043 
L 138.737661 295.476333 
L 236.143766 295.457604 
L 317.315519 295.441393 
L 398.487273 295.423207 
" clip-path="url(#p089ccec78f)" style="fill: none; stroke: #1f77b4; stroke-width: 1.5; stroke-linecap: square"/>
    <defs>
     <path id="m628ea8f05f" d="M 0 3 
C 0.795609 3 1.55874 2.683901 2.12132 2.12132 
C 2.683901 1.55874 3 0.795609 3 0 
C 3 -0.795609 2.683901 -1.55874 2.12132 -2.12132 
C 1.55874 -2.683901 0.795609 -3 0 -3 
C -0.795609 -3 -1.55874 -2.683901 -2.12132 -2.12132 
C -2.683901 -1.55874 -3 -0.795609 -3 0 
C -3 0.795609 -2.683901 1.55874 -2.12132 2.12132 
C -1.55874 2.683901 -0.795609 3 0 3 
z
" style="stroke: #1f77b4"/>
    </defs>
    <g clip-path="url(#p089ccec78f)">
     <use xlink:href="#m628ea8f05f" x="73.832727" y="295.487718" style="fill: #1f77b4; stroke: #1f77b4"/>
     <use xlink:href="#m628ea8f05f" x="74.043774" y="295.487906" style="fill: #1f77b4; stroke: #1f77b4"/>
     <use xlink:href="#m628ea8f05f" x="74.124946" y="295.487927" style="fill: #1f77b4; stroke: #1f77b4"/>
     <use xlink:href="#m628ea8f05f" x="77.047129" y="295.487269" style="fill: #1f77b4; stroke: #1f77b4"/>
     <use xlink:href="#m628ea8f05f" x="90.034609" y="295.48542" style="fill: #1f77b4; stroke: #1f77b4"/>
     <use xlink:href="#m628ea8f05f" x="98.151785" y="295.483916" style="fill: #1f77b4; stroke: #1f77b4"/>
     <use xlink:href="#m628ea8f05f" x="106.26896" y="295.481043" style="fill: #1f77b4; stroke: #1f77b4"/>
     <use xlink:href="#m628ea8f05f" x="138.737661" y="295.476333" style="fill: #1f77b4; stroke: #1f77b4"/>
     <use xlink:href="#m628ea8f05f" x="236.143766" y="295.457604" style="fill: #1f77b4; stroke: #1f77b4"/>
     <use xlink:href="#m628ea8f05f" x="317.315519" y="295.441393" style="fill: #1f77b4; stroke: #1f77b4"/>
     <use xlink:href="#m628ea8f05f" x="398.487273" y="295.423207" style="fill: #1f77b4; stroke: #1f77b4"/>
    </g>
   </g>
   <g id="line2d_13">
    <path d="M 73.832727 295.487948 
L 74.043774 295.487875 
L 74.124946 295.487885 
L 77.047129 295.487227 
L 90.034609 295.485347 
L 98.151785 295.483091 
L 106.26896 295.480594 
L 138.737661 295.475288 
L 236.143766 295.459359 
L 317.315519 295.441132 
L 398.487273 295.426759 
" clip-path="url(#p089ccec78f)" style="fill: none; stroke: #ff7f0e; stroke-width: 1.5; stroke-linecap: square"/>
    <defs>
     <path id="m5ed01e17b5" d="M 0 3 
C 0.795609 3 1.55874 2.683901 2.12132 2.12132 
C 2.683901 1.55874 3 0.795609 3 0 
C 3 -0.795609 2.683901 -1.55874 2.12132 -2.12132 
C 1.55874 -2.683901 0.795609 -3 0 -3 
C -0.795609 -3 -1.55874 -2.683901 -2.12132 -2.12132 
C -2.683901 -1.55874 -3 -0.795609 -3 0 
C -3 0.795609 -2.683901 1.55874 -2.12132 2.12132 
C -1.55874 2.683901 -0.795609 3 0 3 
z
" style="stroke: #ff7f0e"/>
    </defs>
    <g clip-path="url(#p089ccec78f)">
     <use xlink:href="#m5ed01e17b5" x="73.832727" y="295.487948" style="fill: #ff7f0e; stroke: #ff7f0e"/>
     <use xlink:href="#m5ed01e17b5" x="74.043774" y="295.487875" style="fill: #ff7f0e; stroke: #ff7f0e"/>
     <use xlink:href="#m5ed01e17b5" x="74.124946" y="295.487885" style="fill: #ff7f0e; stroke: #ff7f0e"/>
     <use xlink:href="#m5ed01e17b5" x="77.047129" y="295.487227" style="fill: #ff7f0e; stroke: #ff7f0e"/>
     <use xlink:href="#m5ed01e17b5" x="90.034609" y="295.485347" style="fill: #ff7f0e; stroke: #ff7f0e"/>
     <use xlink:href="#m5ed01e17b5" x="98.151785" y="295.483091" style="fill: #ff7f0e; stroke: #ff7f0e"/>
     <use xlink:href="#m5ed01e17b5" x="106.26896" y="295.480594" style="fill: #ff7f0e; stroke: #ff7f0e"/>
     <use xlink:href="#m5ed01e17b5" x="138.737661" y="295.475288" style="fill: #ff7f0e; stroke: #ff7f0e"/>
     <use xlink:href="#m5ed01e17b5" x="236.143766" y="295.459359" style="fill: #ff7f0e; stroke: #ff7f0e"/>
     <use xlink:href="#m5ed01e17b5" x="317.315519" y="295.441132" style="fill: #ff7f0e; stroke: #ff7f0e"/>
     <use xlink:href="#m5ed01e17b5" x="398.487273" y="295.426759" style="fill: #ff7f0e; stroke: #ff7f0e"/>
    </g>
   </g>
   <g id="line2d_14">
    <path d="M 73.832727 295.48799 
L 74.043774 295.487781 
L 74.124946 295.487655 
L 77.047129 295.447879 
L 90.034609 294.873906 
L 98.151785 294.073843 
L 106.26896 292.978061 
L 138.737661 285.705033 
L 236.143766 235.36665 
L 317.315519 142.819515 
L 398.487273 55.172409 
" clip-path="url(#p089ccec78f)" style="fill: none; stroke: #2ca02c; stroke-width: 1.5; stroke-linecap: square"/>
    <defs>
     <path id="med78e52e6a" d="M 0 3 
C 0.795609 3 1.55874 2.683901 2.12132 2.12132 
C 2.683901 1.55874 3 0.795609 3 0 
C 3 -0.795609 2.683901 -1.55874 2.12132 -2.12132 
C 1.55874 -2.683901 0.795609 -3 0 -3 
C -0.795609 -3 -1.55874 -2.683901 -2.12132 -2.12132 
C -2.683901 -1.55874 -3 -0.795609 -3 0 
C -3 0.795609 -2.683901 1.55874 -2.12132 2.12132 
C -1.55874 2.683901 -0.795609 3 0 3 
z
" style="stroke: #2ca02c"/>
    </defs>
    <g clip-path="url(#p089ccec78f)">
     <use xlink:href="#med78e52e6a" x="73.832727" y="295.48799" style="fill: #2ca02c; stroke: #2ca02c"/>
     <use xlink:href="#med78e52e6a" x="74.043774" y="295.487781" style="fill: #2ca02c; stroke: #2ca02c"/>
     <use xlink:href="#med78e52e6a" x="74.124946" y="295.487655" style="fill: #2ca02c; stroke: #2ca02c"/>
     <use xlink:href="#med78e52e6a" x="77.047129" y="295.447879" style="fill: #2ca02c; stroke: #2ca02c"/>
     <use xlink:href="#med78e52e6a" x="90.034609" y="294.873906" style="fill: #2ca02c; stroke: #2ca02c"/>
     <use xlink:href="#med78e52e6a" x="98.151785" y="294.073843" style="fill: #2ca02c; stroke: #2ca02c"/>
     <use xlink:href="#med78e52e6a" x="106.26896" y="292.978061" style="fill: #2ca02c; stroke: #2ca02c"/>
     <use xlink:href="#med78e52e6a" x="138.737661" y="285.705033" style="fill: #2ca02c; stroke: #2ca02c"/>
     <use xlink:href="#med78e52e6a" x="236.143766" y="235.36665" style="fill: #2ca02c; stroke: #2ca02c"/>
     <use xlink:href="#med78e52e6a" x="317.315519" y="142.819515" style="fill: #2ca02c; stroke: #2ca02c"/>
     <use xlink:href="#med78e52e6a" x="398.487273" y="55.172409" style="fill: #2ca02c; stroke: #2ca02c"/>
    </g>
   </g>
   <g id="line2d_15">
    <path d="M 73.832727 295.488 
L 74.043774 295.487969 
L 74.124946 295.487958 
L 77.047129 295.487446 
L 90.034609 295.485034 
L 98.151785 295.483289 
L 106.26896 295.481419 
L 138.737661 295.473596 
L 236.143766 295.448652 
L 317.315519 295.425213 
L 398.487273 295.400781 
" clip-path="url(#p089ccec78f)" style="fill: none; stroke: #d62728; stroke-width: 1.5; stroke-linecap: square"/>
    <defs>
     <path id="m9c1030b7ef" d="M 0 3 
C 0.795609 3 1.55874 2.683901 2.12132 2.12132 
C 2.683901 1.55874 3 0.795609 3 0 
C 3 -0.795609 2.683901 -1.55874 2.12132 -2.12132 
C 1.55874 -2.683901 0.795609 -3 0 -3 
C -0.795609 -3 -1.55874 -2.683901 -2.12132 -2.12132 
C -2.683901 -1.55874 -3 -0.795609 -3 0 
C -3 0.795609 -2.683901 1.55874 -2.12132 2.12132 
C -1.55874 2.683901 -0.795609 3 0 3 
z
" style="stroke: #d62728"/>
    </defs>
    <g clip-path="url(#p089ccec78f)">
     <use xlink:href="#m9c1030b7ef" x="73.832727" y="295.488" style="fill: #d62728; stroke: #d62728"/>
     <use xlink:href="#m9c1030b7ef" x="74.043774" y="295.487969" style="fill: #d62728; stroke: #d62728"/>
     <use xlink:href="#m9c1030b7ef" x="74.124946" y="295.487958" style="fill: #d62728; stroke: #d62728"/>
     <use xlink:href="#m9c1030b7ef" x="77.047129" y="295.487446" style="fill: #d62728; stroke: #d62728"/>
     <use xlink:href="#m9c1030b7ef" x="90.034609" y="295.485034" style="fill: #d62728; stroke: #d62728"/>
     <use xlink:href="#m9c1030b7ef" x="98.151785" y="295.483289" style="fill: #d62728; stroke: #d62728"/>
     <use xlink:href="#m9c1030b7ef" x="106.26896" y="295.481419" style="fill: #d62728; stroke: #d62728"/>
     <use xlink:href="#m9c1030b7ef" x="138.737661" y="295.473596" style="fill: #d62728; stroke: #d62728"/>
     <use xlink:href="#m9c1030b7ef" x="236.143766" y="295.448652" style="fill: #d62728; stroke: #d62728"/>
     <use xlink:href="#m9c1030b7ef" x="317.315519" y="295.425213" style="fill: #d62728; stroke: #d62728"/>
     <use xlink:href="#m9c1030b7ef" x="398.487273" y="295.400781" style="fill: #d62728; stroke: #d62728"/>
    </g>
   </g>
   <g id="line2d_16">
    <path d="M 73.832727 295.48799 
L 74.043774 295.487791 
L 74.124946 295.487655 
L 77.047129 295.451097 
L 90.034609 294.856682 
L 98.151785 293.740751 
L 106.26896 292.828734 
L 138.737661 285.390648 
L 236.143766 236.096363 
L 317.315519 162.933121 
L 398.487273 53.568 
" clip-path="url(#p089ccec78f)" style="fill: none; stroke: #9467bd; stroke-width: 1.5; stroke-linecap: square"/>
    <defs>
     <path id="ma24994636b" d="M 0 3 
C 0.795609 3 1.55874 2.683901 2.12132 2.12132 
C 2.683901 1.55874 3 0.795609 3 0 
C 3 -0.795609 2.683901 -1.55874 2.12132 -2.12132 
C 1.55874 -2.683901 0.795609 -3 0 -3 
C -0.795609 -3 -1.55874 -2.683901 -2.12132 -2.12132 
C -2.683901 -1.55874 -3 -0.795609 -3 0 
C -3 0.795609 -2.683901 1.55874 -2.12132 2.12132 
C -1.55874 2.683901 -0.795609 3 0 3 
z
" style="stroke: #9467bd"/>
    </defs>
    <g clip-path="url(#p089ccec78f)">
     <use xlink:href="#ma24994636b" x="73.832727" y="295.48799" style="fill: #9467bd; stroke: #9467bd"/>
     <use xlink:href="#ma24994636b" x="74.043774" y="295.487791" style="fill: #9467bd; stroke: #9467bd"/>
     <use xlink:href="#ma24994636b" x="74.124946" y="295.487655" style="fill: #9467bd; stroke: #9467bd"/>
     <use xlink:href="#ma24994636b" x="77.047129" y="295.451097" style="fill: #9467bd; stroke: #9467bd"/>
     <use xlink:href="#ma24994636b" x="90.034609" y="294.856682" style="fill: #9467bd; stroke: #9467bd"/>
     <use xlink:href="#ma24994636b" x="98.151785" y="293.740751" style="fill: #9467bd; stroke: #9467bd"/>
     <use xlink:href="#ma24994636b" x="106.26896" y="292.828734" style="fill: #9467bd; stroke: #9467bd"/>
     <use xlink:href="#ma24994636b" x="138.737661" y="285.390648" style="fill: #9467bd; stroke: #9467bd"/>
     <use xlink:href="#ma24994636b" x="236.143766" y="236.096363" style="fill: #9467bd; stroke: #9467bd"/>
     <use xlink:href="#ma24994636b" x="317.315519" y="162.933121" style="fill: #9467bd; stroke: #9467bd"/>
     <use xlink:href="#ma24994636b" x="398.487273" y="53.568" style="fill: #9467bd; stroke: #9467bd"/>
    </g>
   </g>
   <g id="patch_3">
    <path d="M 57.6 307.584 
L 57.6 41.472 
" style="fill: none; stroke: #000000; stroke-width: 0.8; stroke-linejoin: miter; stroke-linecap: square"/>
   </g>
   <g id="patch_4">
    <path d="M 414.72 307.584 
L 414.72 41.472 
" style="fill: none; stroke: #000000; stroke-width: 0.8; stroke-linejoin: miter; stroke-linecap: square"/>
   </g>
   <g id="patch_5">
    <path d="M 57.6 307.584 
L 414.72 307.584 
" style="fill: none; stroke: #000000; stroke-width: 0.8; stroke-linejoin: miter; stroke-linecap: square"/>
   </g>
   <g id="patch_6">
    <path d="M 57.6 41.472 
L 414.72 41.472 
" style="fill: none; stroke: #000000; stroke-width: 0.8; stroke-linejoin: miter; stroke-linecap: square"/>
   </g>
   <g id="text_14">
    <!-- Mesure du nombre du temps de calcul - dataset croissant -->
    <g transform="translate(63.167812 35.472)scale(0.12 -0.12)">
     <defs>
      <path id="DejaVuSans-4d" d="M 628 4666 
L 1569 4666 
L 2759 1491 
L 3956 4666 
L 4897 4666 
L 4897 0 
L 4281 0 
L 4281 4097 
L 3078 897 
L 2444 897 
L 1241 4097 
L 1241 0 
L 628 0 
L 628 4666 
z
" transform="scale(0.015625)"/>
      <path id="DejaVuSans-72" d="M 2631 2963 
Q 2534 3019 2420 3045 
Q 2306 3072 2169 3072 
Q 1681 3072 1420 2755 
Q 1159 2438 1159 1844 
L 1159 0 
L 581 0 
L 581 3500 
L 1159 3500 
L 1159 2956 
Q 1341 3275 1631 3429 
Q 1922 3584 2338 3584 
Q 2397 3584 2469 3576 
Q 2541 3569 2628 3553 
L 2631 2963 
z
" transform="scale(0.015625)"/>
      <path id="DejaVuSans-6f" d="M 1959 3097 
Q 1497 3097 1228 2736 
Q 959 2375 959 1747 
Q 959 1119 1226 758 
Q 1494 397 1959 397 
Q 2419 397 2687 759 
Q 2956 1122 2956 1747 
Q 2956 2369 2687 2733 
Q 2419 3097 1959 3097 
z
M 1959 3584 
Q 2709 3584 3137 3096 
Q 3566 2609 3566 1747 
Q 3566 888 3137 398 
Q 2709 -91 1959 -91 
Q 1206 -91 779 398 
Q 353 888 353 1747 
Q 353 2609 779 3096 
Q 1206 3584 1959 3584 
z
" transform="scale(0.015625)"/>
      <path id="DejaVuSans-62" d="M 3116 1747 
Q 3116 2381 2855 2742 
Q 2594 3103 2138 3103 
Q 1681 3103 1420 2742 
Q 1159 2381 1159 1747 
Q 1159 1113 1420 752 
Q 1681 391 2138 391 
Q 2594 391 2855 752 
Q 3116 1113 3116 1747 
z
M 1159 2969 
Q 1341 3281 1617 3432 
Q 1894 3584 2278 3584 
Q 2916 3584 3314 3078 
Q 3713 2572 3713 1747 
Q 3713 922 3314 415 
Q 2916 -91 2278 -91 
Q 1894 -91 1617 61 
Q 1341 213 1159 525 
L 1159 0 
L 581 0 
L 581 4863 
L 1159 4863 
L 1159 2969 
z
" transform="scale(0.015625)"/>
      <path id="DejaVuSans-63" d="M 3122 3366 
L 3122 2828 
Q 2878 2963 2633 3030 
Q 2388 3097 2138 3097 
Q 1578 3097 1268 2742 
Q 959 2388 959 1747 
Q 959 1106 1268 751 
Q 1578 397 2138 397 
Q 2388 397 2633 464 
Q 2878 531 3122 666 
L 3122 134 
Q 2881 22 2623 -34 
Q 2366 -91 2075 -91 
Q 1284 -91 818 406 
Q 353 903 353 1747 
Q 353 2603 823 3093 
Q 1294 3584 2113 3584 
Q 2378 3584 2631 3529 
Q 2884 3475 3122 3366 
z
" transform="scale(0.015625)"/>
      <path id="DejaVuSans-2d" d="M 313 2009 
L 1997 2009 
L 1997 1497 
L 313 1497 
L 313 2009 
z
" transform="scale(0.015625)"/>
     </defs>
     <use xlink:href="#DejaVuSans-4d"/>
     <use xlink:href="#DejaVuSans-65" x="86.279297"/>
     <use xlink:href="#DejaVuSans-73" x="147.802734"/>
     <use xlink:href="#DejaVuSans-75" x="199.902344"/>
     <use xlink:href="#DejaVuSans-72" x="263.28125"/>
     <use xlink:href="#DejaVuSans-65" x="302.144531"/>
     <use xlink:href="#DejaVuSans-20" x="363.667969"/>
     <use xlink:href="#DejaVuSans-64" x="395.455078"/>
     <use xlink:href="#DejaVuSans-75" x="458.931641"/>
     <use xlink:href="#DejaVuSans-20" x="522.310547"/>
     <use xlink:href="#DejaVuSans-6e" x="554.097656"/>
     <use xlink:href="#DejaVuSans-6f" x="617.476562"/>
     <use xlink:href="#DejaVuSans-6d" x="678.658203"/>
     <use xlink:href="#DejaVuSans-62" x="776.070312"/>
     <use xlink:href="#DejaVuSans-72" x="839.546875"/>
     <use xlink:href="#DejaVuSans-65" x="878.410156"/>
     <use xlink:href="#DejaVuSans-20" x="939.933594"/>
     <use xlink:href="#DejaVuSans-64" x="971.720703"/>
     <use xlink:href="#DejaVuSans-75" x="1035.197266"/>
     <use xlink:href="#DejaVuSans-20" x="1098.576172"/>
     <use xlink:href="#DejaVuSans-74" x="1130.363281"/>
     <use xlink:href="#DejaVuSans-65" x="1169.572266"/>
     <use xlink:href="#DejaVuSans-6d" x="1231.095703"/>
     <use xlink:href="#DejaVuSans-70" x="1328.507812"/>
     <use xlink:href="#DejaVuSans-73" x="1391.984375"/>
     <use xlink:href="#DejaVuSans-20" x="1444.083984"/>
     <use xlink:href="#DejaVuSans-64" x="1475.871094"/>
     <use xlink:href="#DejaVuSans-65" x="1539.347656"/>
     <use xlink:href="#DejaVuSans-20" x="1600.871094"/>
     <use xlink:href="#DejaVuSans-63" x="1632.658203"/>
     <use xlink:href="#DejaVuSans-61" x="1687.638672"/>
     <use xlink:href="#DejaVuSans-6c" x="1748.917969"/>
     <use xlink:href="#DejaVuSans-63" x="1776.701172"/>
     <use xlink:href="#DejaVuSans-75" x="1831.681641"/>
     <use xlink:href="#DejaVuSans-6c" x="1895.060547"/>
     <use xlink:href="#DejaVuSans-20" x="1922.84375"/>
     <use xlink:href="#DejaVuSans-2d" x="1954.630859"/>
     <use xlink:href="#DejaVuSans-20" x="1990.714844"/>
     <use xlink:href="#DejaVuSans-64" x="2022.501953"/>
     <use xlink:href="#DejaVuSans-61" x="2085.978516"/>
     <use xlink:href="#DejaVuSans-74" x="2147.257812"/>
     <use xlink:href="#DejaVuSans-61" x="2186.466797"/>
     <use xlink:href="#DejaVuSans-73" x="2247.746094"/>
     <use xlink:href="#DejaVuSans-65" x="2299.845703"/>
     <use xlink:href="#DejaVuSans-74" x="2361.369141"/>
     <use xlink:href="#DejaVuSans-20" x="2400.578125"/>
     <use xlink:href="#DejaVuSans-63" x="2432.365234"/>
     <use xlink:href="#DejaVuSans-72" x="2487.345703"/>
     <use xlink:href="#DejaVuSans-6f" x="2526.208984"/>
     <use xlink:href="#DejaVuSans-69" x="2587.390625"/>
     <use xlink:href="#DejaVuSans-73" x="2615.173828"/>
     <use xlink:href="#DejaVuSans-73" x="2667.273438"/>
     <use xlink:href="#DejaVuSans-61" x="2719.373047"/>
     <use xlink:href="#DejaVuSans-6e" x="2780.652344"/>
     <use xlink:href="#DejaVuSans-74" x="2844.03125"/>
    </g>
   </g>
   <g id="legend_1">
    <g id="patch_7">
     <path d="M 64.6 123.975125 
L 178.94375 123.975125 
Q 180.94375 123.975125 180.94375 121.975125 
L 180.94375 48.472 
Q 180.94375 46.472 178.94375 46.472 
L 64.6 46.472 
Q 62.6 46.472 62.6 48.472 
L 62.6 121.975125 
Q 62.6 123.975125 64.6 123.975125 
z
" style="fill: #ffffff; opacity: 0.8; stroke: #cccccc; stroke-linejoin: miter"/>
    </g>
    <g id="line2d_17">
     <path d="M 66.6 54.570438 
L 76.6 54.570438 
L 86.6 54.570438 
" style="fill: none; stroke: #1f77b4; stroke-width: 1.5; stroke-linecap: square"/>
     <g>
      <use xlink:href="#m628ea8f05f" x="76.6" y="54.570438" style="fill: #1f77b4; stroke: #1f77b4"/>
     </g>
    </g>
    <g id="text_15">
     <!-- sort -->
     <g transform="translate(94.6 58.070438)scale(0.1 -0.1)">
      <use xlink:href="#DejaVuSans-73"/>
      <use xlink:href="#DejaVuSans-6f" x="52.099609"/>
      <use xlink:href="#DejaVuSans-72" x="113.28125"/>
      <use xlink:href="#DejaVuSans-74" x="154.394531"/>
     </g>
    </g>
    <g id="line2d_18">
     <path d="M 66.6 69.248563 
L 76.6 69.248563 
L 86.6 69.248563 
" style="fill: none; stroke: #ff7f0e; stroke-width: 1.5; stroke-linecap: square"/>
     <g>
      <use xlink:href="#m5ed01e17b5" x="76.6" y="69.248563" style="fill: #ff7f0e; stroke: #ff7f0e"/>
     </g>
    </g>
    <g id="text_16">
     <!-- stable_sort -->
     <g transform="translate(94.6 72.748563)scale(0.1 -0.1)">
      <defs>
       <path id="DejaVuSans-5f" d="M 3263 -1063 
L 3263 -1509 
L -63 -1509 
L -63 -1063 
L 3263 -1063 
z
" transform="scale(0.015625)"/>
      </defs>
      <use xlink:href="#DejaVuSans-73"/>
      <use xlink:href="#DejaVuSans-74" x="52.099609"/>
      <use xlink:href="#DejaVuSans-61" x="91.308594"/>
      <use xlink:href="#DejaVuSans-62" x="152.587891"/>
      <use xlink:href="#DejaVuSans-6c" x="216.064453"/>
      <use xlink:href="#DejaVuSans-65" x="243.847656"/>
      <use xlink:href="#DejaVuSans-5f" x="305.371094"/>
      <use xlink:href="#DejaVuSans-73" x="355.371094"/>
      <use xlink:href="#DejaVuSans-6f" x="407.470703"/>
      <use xlink:href="#DejaVuSans-72" x="468.652344"/>
      <use xlink:href="#DejaVuSans-74" x="509.765625"/>
     </g>
    </g>
    <g id="line2d_19">
     <path d="M 66.6 84.204813 
L 76.6 84.204813 
L 86.6 84.204813 
" style="fill: none; stroke: #2ca02c; stroke-width: 1.5; stroke-linecap: square"/>
     <g>
      <use xlink:href="#med78e52e6a" x="76.6" y="84.204813" style="fill: #2ca02c; stroke: #2ca02c"/>
     </g>
    </g>
    <g id="text_17">
     <!-- tri_a_bulle -->
     <g transform="translate(94.6 87.704813)scale(0.1 -0.1)">
      <use xlink:href="#DejaVuSans-74"/>
      <use xlink:href="#DejaVuSans-72" x="39.208984"/>
      <use xlink:href="#DejaVuSans-69" x="80.322266"/>
      <use xlink:href="#DejaVuSans-5f" x="108.105469"/>
      <use xlink:href="#DejaVuSans-61" x="158.105469"/>
      <use xlink:href="#DejaVuSans-5f" x="219.384766"/>
      <use xlink:href="#DejaVuSans-62" x="269.384766"/>
      <use xlink:href="#DejaVuSans-75" x="332.861328"/>
      <use xlink:href="#DejaVuSans-6c" x="396.240234"/>
      <use xlink:href="#DejaVuSans-6c" x="424.023438"/>
      <use xlink:href="#DejaVuSans-65" x="451.806641"/>
     </g>
    </g>
    <g id="line2d_20">
     <path d="M 66.6 99.161063 
L 76.6 99.161063 
L 86.6 99.161063 
" style="fill: none; stroke: #d62728; stroke-width: 1.5; stroke-linecap: square"/>
     <g>
      <use xlink:href="#m9c1030b7ef" x="76.6" y="99.161063" style="fill: #d62728; stroke: #d62728"/>
     </g>
    </g>
    <g id="text_18">
     <!-- tri_par_insertion -->
     <g transform="translate(94.6 102.661063)scale(0.1 -0.1)">
      <use xlink:href="#DejaVuSans-74"/>
      <use xlink:href="#DejaVuSans-72" x="39.208984"/>
      <use xlink:href="#DejaVuSans-69" x="80.322266"/>
      <use xlink:href="#DejaVuSans-5f" x="108.105469"/>
      <use xlink:href="#DejaVuSans-70" x="158.105469"/>
      <use xlink:href="#DejaVuSans-61" x="221.582031"/>
      <use xlink:href="#DejaVuSans-72" x="282.861328"/>
      <use xlink:href="#DejaVuSans-5f" x="323.974609"/>
      <use xlink:href="#DejaVuSans-69" x="373.974609"/>
      <use xlink:href="#DejaVuSans-6e" x="401.757812"/>
      <use xlink:href="#DejaVuSans-73" x="465.136719"/>
      <use xlink:href="#DejaVuSans-65" x="517.236328"/>
      <use xlink:href="#DejaVuSans-72" x="578.759766"/>
      <use xlink:href="#DejaVuSans-74" x="619.873047"/>
      <use xlink:href="#DejaVuSans-69" x="659.082031"/>
      <use xlink:href="#DejaVuSans-6f" x="686.865234"/>
      <use xlink:href="#DejaVuSans-6e" x="748.046875"/>
     </g>
    </g>
    <g id="line2d_21">
     <path d="M 66.6 114.117313 
L 76.6 114.117313 
L 86.6 114.117313 
" style="fill: none; stroke: #9467bd; stroke-width: 1.5; stroke-linecap: square"/>
     <g>
      <use xlink:href="#ma24994636b" x="76.6" y="114.117313" style="fill: #9467bd; stroke: #9467bd"/>
     </g>
    </g>
    <g id="text_19">
     <!-- tri_par_selection -->
     <g transform="translate(94.6 117.617313)scale(0.1 -0.1)">
      <use xlink:href="#DejaVuSans-74"/>
      <use xlink:href="#DejaVuSans-72" x="39.208984"/>
      <use xlink:href="#DejaVuSans-69" x="80.322266"/>
      <use xlink:href="#DejaVuSans-5f" x="108.105469"/>
      <use xlink:href="#DejaVuSans-70" x="158.105469"/>
      <use xlink:href="#DejaVuSans-61" x="221.582031"/>
      <use xlink:href="#DejaVuSans-72" x="282.861328"/>
      <use xlink:href="#DejaVuSans-5f" x="323.974609"/>
      <use xlink:href="#DejaVuSans-73" x="373.974609"/>
      <use xlink:href="#DejaVuSans-65" x="426.074219"/>
      <use xlink:href="#DejaVuSans-6c" x="487.597656"/>
      <use xlink:href="#DejaVuSans-65" x="515.380859"/>
      <use xlink:href="#DejaVuSans-63" x="576.904297"/>
      <use xlink:href="#DejaVuSans-74" x="631.884766"/>
      <use xlink:href="#DejaVuSans-69" x="671.09375"/>
      <use xlink:href="#DejaVuSans-6f" x="698.876953"/>
      <use xlink:href="#DejaVuSans-6e" x="760.058594"/>
     </g>
    </g>
   </g>
  </g>
 </g>
 <defs>
  <clipPath id="p089ccec78f">
   <rect x="57.6" y="41.472" width="357.12" height="266.112"/>
  </clipPath>
 </defs>
</svg>
